
<svg width="1024px" height="1018px" viewBox="0 0 1024 1018" version="1.1" xmlns="http://www.w3.org/2000/svg" xmlns:xlink="http://www.w3.org/1999/xlink">
    <!-- Generator: Sketch 48.1 (47250) - http://www.bohemiancoding.com/sketch -->
    <desc>Created with Sketch.</desc>
    <defs></defs>
    <g id="Page-1" stroke="none" stroke-width="1" fill="none" fill-rule="evenodd">
        <g id="slots">
            <text id="8" font-family="Chalkboard" font-size="288" font-weight="normal" fill="#F5E62B">
                <tspan x="253" y="403">8</tspan>
            </text>
            <text id="8" font-family="Chalkboard" font-size="288" font-weight="normal" fill="#F5E62B">
                <tspan x="594" y="403">8</tspan>
            </text>
            <text id="8" font-family="Chalkboard" font-size="288" font-weight="normal" fill="#F5E62B">
                <tspan x="430" y="403">8</tspan>
            </text>
            <path d="M1024,622.73056 L945.152,1017.032 L78.848,1017.032 L0,622.73056 L130.944,426.25056 L130.944,0.968 L893.056,0.968 L893.056,426.312 L1024,622.73056 Z M841.088,890.056 L889.21088,649.416 L766.07488,464.77344 L766.07488,127.944 L257.98656,127.944 L257.98656,464.712 L134.912,649.416 L182.97344,890.056 L841.088,890.056 Z M128,633.032 L896,633.032 L896,953.032 L128,953.032 L128,633.032 Z M596.02944,543.24256 C596.02944,566.81504 629.38624,585.93312 670.53056,585.93312 C711.66976,585.93312 745.02656,566.82016 745.02656,543.24256 C745.02656,519.66496 711.66976,500.55712 670.53056,500.55712 C629.38624,500.552 596.02944,519.66496 596.02944,543.24256 Z M903.36256,211.016 C903.357072,219.01875 907.621417,226.416523 914.549257,230.422651 C921.477098,234.428778 930.01593,234.434633 936.949258,230.438011 C943.882587,226.441388 948.157073,219.04947 948.16256,211.04672 L948.16256,211.016 C948.168048,203.013251 943.903702,195.615478 936.975862,191.609351 C930.048022,187.603224 921.50919,187.597369 914.575862,191.593991 C907.642534,195.590613 903.368048,202.982531 903.36256,210.98528 L903.36256,211.016 Z M914.56,230.43104 C914.56,230.43104 919.43936,233.64128 925.7472,233.43136 C931.92192,233.40064 936.02816,230.92768 936.02816,230.92768 L925.82912,304.90144 L914.56512,318.14688 L914.56512,230.43104 L914.56,230.43104 Z M884.80256,304.90656 L925.82912,304.90656 L925.82912,375.17856 L884.80256,375.17856 L884.80256,304.90656 Z M925.7984,375.21954 C937.07264,375.24 946.22208,359.53184 946.23744,340.12704 L946.23744,340.04 C946.23744,320.6352 937.09824,304.90656 925.824,304.90656 L925.7984,375.21954 Z M257.98656,163.33344 L766.08,163.33344 L766.08,188.616 L257.98656,188.616 L257.98656,163.33344 Z M257.98656,437.51456 L766.08,437.51456 L766.08,462.79712 L257.98656,462.79712 L257.98656,437.51456 Z M422.016,188.616 L428.032,188.616 L428.032,437.51456 L422.016,437.51456 L422.016,188.616 Z M596.02944,188.616 L602.05056,188.616 L602.05056,437.51456 L596.02944,437.51456 L596.02944,188.616 Z M310.016,515.85056 C310.016,522.53216 321.21856,527.944 335.04256,527.944 C348.86656,527.944 360.06912,522.52704 360.06912,515.85056 C360.06912,509.16896 348.86656,503.752 335.04256,503.752 C321.21856,503.752 310.016,509.16896 310.016,515.85056 Z M427.84256,515.85056 C427.84256,522.53216 439.04512,527.944 452.86912,527.944 C466.688,527.944 477.89056,522.52704 477.89056,515.85056 C477.89056,509.16896 466.688,503.752 452.86912,503.752 C439.04,503.752 427.84256,509.16896 427.84256,515.85056 Z M284.99456,570.568 C284.99456,577.28544 296.19712,582.728 310.016,582.728 C323.84,582.728 335.04256,577.28544 335.04256,570.568 C335.04256,563.84544 323.84,558.408 310.016,558.408 C296.19712,558.408 284.99456,563.85056 284.99456,570.568 Z M402.816,570.568 C402.816,577.28544 414.01856,582.728 427.84256,582.728 C441.66656,582.728 452.86912,577.28544 452.86912,570.568 C452.86912,563.84544 441.66656,558.408 427.84256,558.408 C414.01856,558.408 402.816,563.85056 402.816,570.568 Z" id="Shape" fill="#E54A4A" fill-rule="nonzero"></path>
        </g>
    </g>
</svg>